<?xml version="1.0" standalone="no"?>
<!DOCTYPE svg PUBLIC "-//W3C//DTD SVG 1.1//EN" "http://www.w3.org/Graphics/SVG/1.1/DTD/svg11.dtd" >
<svg xmlns="http://www.w3.org/2000/svg">
<metadata></metadata>
<defs>
<font id="alternategothicef-notwoRg" horiz-adv-x="1024" >
<font-face units-per-em="2048" ascent="1638" descent="-410" />
<missing-glyph horiz-adv-x="512" />
<glyph horiz-adv-x="2048" />
<glyph horiz-adv-x="2048" />
<glyph unicode="&#xd;" horiz-adv-x="512" />
<glyph unicode=" "  horiz-adv-x="512" />
<glyph unicode="&#x09;" horiz-adv-x="512" />
<glyph unicode="&#xa0;" horiz-adv-x="512" />
<glyph unicode="!" horiz-adv-x="456" d="M123 1366h211l-41 -963h-129zM129 0v211h199v-211h-199z" />
<glyph unicode="&#x22;" horiz-adv-x="714" d="M102 1366h197l-33 -549h-131zM416 1366h196l-32 -549h-131z" />
<glyph unicode="#" horiz-adv-x="1228" d="M53 412l25 159h223l39 250h-223l24 160h224l59 385h180l-59 -385h250l61 385h182l-61 -385h219l-25 -160h-219l-37 -250h222l-27 -159h-219l-66 -412h-182l66 412h-252l-64 -412h-180l63 412h-223zM481 571h252l37 250h-250z" />
<glyph unicode="$" horiz-adv-x="778" d="M61 172l144 119q59 -133 166 -133q141 0 141 180q0 82 -33 135q-35 59 -114 125q-78 66 -129.5 114t-73.5 76q-86 111 -86 256q0 266 246 326v137h110v-137q141 -18 230 -137l-136 -125q-61 100 -139 100q-63 0 -94 -45q-33 -45 -33 -112q0 -115 115 -217 q53 -49 107.5 -97.5t107.5 -95.5q115 -133 115 -303q0 -295 -273 -346v-199h-110v201q-172 23 -261 178z" />
<glyph unicode="%" horiz-adv-x="1089" d="M82 877v301q0 98 35 145q49 63 131 63q84 0 133 -63q35 -47 35 -145v-301q0 -98 -35 -146q-49 -61 -133 -61q-86 0 -131 61q-35 47 -35 146zM188 0l590 1366h123l-590 -1366h-123zM199 864q0 -47 6 -61q12 -31 45 -31q49 0 49 102v306q0 47 -4 67q-10 35 -47 35 q-49 0 -49 -92v-326zM674 188v301q0 98 35 146q49 61 133 61t131 -61q35 -47 35 -146v-301q0 -98 -35 -145q-49 -63 -131 -63q-84 0 -133 63q-35 47 -35 145zM791 186q0 -47 4 -67q10 -35 47 -35q49 0 49 92v326q0 41 -4 61q-10 31 -47 31q-49 0 -49 -102v-306z" />
<glyph unicode="&#x26;" horiz-adv-x="909" d="M82 297q0 113 45 209q16 33 45 78t70 104q-96 233 -97 379q0 129 66 217q70 94 197 94q115 0 176 -73q61 -78 61 -193t-59 -229q-18 -35 -52 -85t-83 -114q35 -70 72.5 -138.5t82.5 -133.5q39 88 68 239l166 -39q-37 -201 -117 -350q37 -55 108 -78v-204 q-137 25 -219 118q-106 -113 -235 -112q-139 0 -217 84q-78 88 -78 227zM266 315q0 -57 33 -90q35 -35 88 -35q64 1 107 50q-29 45 -70 113.5t-94 160.5q-63 -119 -64 -199zM311 1094q0 -106 62 -242q100 131 100 272q0 125 -76 125q-86 0 -86 -155z" />
<glyph unicode="'" horiz-adv-x="401" d="M102 1366h197l-33 -549h-131z" />
<glyph unicode="(" horiz-adv-x="565" d="M82 594q0 414 280 848l136 -74q-231 -379 -232 -774q0 -389 232 -774l-136 -74q-47 76 -82.5 137.5t-58.5 112.5q-139 299 -139 598z" />
<glyph unicode=")" horiz-adv-x="565" d="M68 -180q231 379 231 774t-231 774l135 74q280 -440 280 -848q0 -414 -280 -848z" />
<glyph unicode="*" horiz-adv-x="641" d="M82 1137l47 143l131 -61l-14 147h149l-14 -147l131 61l47 -143l-143 -29l98 -109l-121 -88l-71 127l-74 -127l-121 88l98 109z" />
<glyph unicode="+" d="M68 604v164h356v342h176v-342h356v-164h-356v-342h-176v342h-356z" />
<glyph unicode="," horiz-adv-x="368" d="M86 0v211h197v-211l-107 -238h-90l72 238h-72z" />
<glyph unicode="-" horiz-adv-x="286" d="M0 426v184h287v-184h-287z" />
<glyph unicode="." horiz-adv-x="368" d="M86 0v211h197v-211h-197z" />
<glyph unicode="/" horiz-adv-x="759" d="M27 -137l546 1503h146l-547 -1503h-145z" />
<glyph unicode="0" horiz-adv-x="778" d="M88 381v602q0 195 62 285q82 119 239 118q154 0 240 -118q61 -84 61 -285v-602q0 -201 -61 -283q-88 -119 -240 -118q-152 0 -239 118q-61 82 -62 283zM283 362q0 -94 10 -131q23 -72 96 -71q74 0 96 71q10 37 11 131v642q0 47 -2 79.5t-9 51.5q-20 70 -96 69 q-76 0 -96 -69q-6 -18 -8 -51t-2 -80v-642z" />
<glyph unicode="1" horiz-adv-x="778" d="M154 1073v127q131 35 231 166h131v-1366h-194v1073h-168z" />
<glyph unicode="2" horiz-adv-x="778" d="M74 0v186q100 150 165.5 253.5t98.5 162.5q156 281 156 457q0 145 -101 145q-82 0 -106 -90q-12 -49 -11 -156h-192v46q0 383 313 382q143 0 224 -98q71 -90 71 -237q0 -184 -147 -457q-35 -66 -100.5 -169t-161.5 -245h389v-180h-598z" />
<glyph unicode="3" horiz-adv-x="778" d="M84 348v41h192q-2 -10 -2 -20.5v-20.5q0 -188 109 -188q70 0 94 86q12 43 12 143q0 125 -32 172q-39 55 -168 60v180q121 6 151 47q35 41 35 164q0 193 -94 192q-68 0 -86 -78q-4 -16 -6 -49t0 -84h-189v33q0 152 66 248q76 113 221 112q145 0 217 -120q55 -96 55 -254 q0 -225 -120 -303q92 -47 123 -142q20 -61 20 -190q0 -397 -297 -397q-301 0 -301 368z" />
<glyph unicode="4" horiz-adv-x="778" d="M47 334v184l348 848h195v-850h129v-182h-129v-334h-187v334h-356zM213 516h190v510z" />
<glyph unicode="5" horiz-adv-x="778" d="M84 346v39h195q0 -51 2 -87t8 -56q25 -82 98 -82q98 0 98 176v280q0 68 -10 99q-23 49 -80 49q-80 0 -116 -111l-181 13l23 700h518v-182h-350l-10 -334q76 94 184 94q45 0 84 -16q88 -41 115 -135q18 -59 18 -185v-246q0 -195 -76 -288q-76 -94 -221 -94 q-299 0 -299 366z" />
<glyph unicode="6" horiz-adv-x="778" d="M90 369v620q0 53 2 94t8 68q18 82 72 141q82 94 215 94q145 0 223 -104q70 -94 70 -246v-35h-195q0 94 -10 132q-23 72 -90 71q-100 0 -100 -182v-279q78 96 186 97q223 0 223 -285v-186q0 -193 -71 -283q-86 -106 -232 -106q-143 0 -229 106q-72 90 -72 283zM285 340 q0 -180 108 -180q106 0 107 182v180q0 145 -88 146q-86 0 -127 -103v-225z" />
<glyph unicode="7" horiz-adv-x="778" d="M86 1184v182h578v-139l-254 -1227h-195l252 1184h-381z" />
<glyph unicode="8" horiz-adv-x="778" d="M86 397q0 119 23 187q31 92 116 141q-70 57 -98 137q-23 68 -23 168q0 158 64 248q74 109 221 108q285 0 285 -360q0 -199 -121 -301q88 -51 119 -143q20 -62 20 -189q0 -414 -303 -413q-303 0 -303 417zM285 389q0 -51 2 -86t8 -57q20 -86 94 -86q72 0 94 86 q6 23 8.5 57.5t2.5 85.5q0 96 -11 141q-23 86 -94 86q-74 0 -94 -86q-10 -45 -10 -141zM289 1012q0 -195 100 -195t100 195q0 193 -100 192q-100 0 -100 -192z" />
<glyph unicode="9" horiz-adv-x="778" d="M84 809v188q0 193 72 283q86 106 229 106t229 -106q72 -90 72 -283v-620q0 -104 -10 -162q-14 -80 -70 -141q-86 -94 -215 -94q-150 0 -225 104q-70 94 -70 246v35h195q0 -94 10 -132q18 -74 90 -73q100 0 101 184v279q-78 -98 -187 -99q-221 0 -221 285zM279 842 q0 -63 10 -94q18 -49 76 -50q88 0 127 101v227q0 178 -107 178q-106 0 -106 -180v-182z" />
<glyph unicode=":" horiz-adv-x="368" d="M86 0v211h197v-211h-197zM86 805v213h197v-213h-197z" />
<glyph unicode=";" horiz-adv-x="368" d="M86 0v211h197v-211l-107 -238h-90l72 238h-72zM86 805v213h197v-213h-197z" />
<glyph unicode="&#x3c;" d="M68 602v152l888 424v-177l-698 -323l696 -326l2 -174z" />
<glyph unicode="=" d="M68 459v157h888v-157h-888zM68 782v156h888v-156h-888z" />
<glyph unicode="&#x3e;" d="M68 178v176l698 324l-696 326l-2 174l888 -424v-152z" />
<glyph unicode="?" horiz-adv-x="708" d="M68 1130q76 248 297 248q119 0 190 -65q72 -68 72 -187q0 -106 -107 -292q-106 -186 -106 -328v-20.5t2 -28.5t2 -29.5v-24.5h-166v43q0 145 27 267q18 92 118 270q45 82 45 131q0 98 -75 98q-78 0 -131 -145zM240 0v211h196v-211h-196z" />
<glyph unicode="@" horiz-adv-x="919" d="M96 332v712q0 168 103 259q96 84 270 83q166 0 264 -79q104 -86 105 -250v-695h-125l-23 56q-63 -76 -147 -76q-158 0 -158 170v385q0 186 172 186q66 0 117 -51v43q0 82 -64 127q-57 41 -141 41q-90 0 -154 -55q-55 -47 -55 -174v-637q0 -119 37 -170q59 -84 182 -84 q104 0 195 72l98 -95q-109 -121 -293 -120q-174 0 -274 88q-109 96 -109 264zM549 557q0 -78 63 -78q61 0 62 78v313q0 78 -64 78q-61 0 -61 -78v-313z" />
<glyph unicode="A" horiz-adv-x="829" d="M55 0l221 1366h269l237 -1366h-211l-47 301h-221l-45 -301h-203zM332 492h162l-84 544z" />
<glyph unicode="B" horiz-adv-x="821" d="M92 0v1366h283q342 0 342 -354q0 -205 -144 -305q166 -86 166 -340q0 -201 -100 -299q-72 -68 -246 -68h-301zM297 190h76q162 0 162 199q0 139 -64 191q-36 30 -118 30h-5h-51v-420zM297 801h43q174 0 174 203q0 170 -141 170h-76v-373z" />
<glyph unicode="C" horiz-adv-x="794" d="M86 453v460q0 72 2 120t6 73q14 100 74 172q89 108 237 108h3q182 0 272 -151q47 -84 47 -274v-48h-207v33q0 127 -8 158q-23 90 -106 90q-92 0 -109 -115q-6 -47 -6 -180v-432q0 -131 6 -180q14 -117 109 -117q74 0 98 72q10 31 14 129q2 45 2 72.5v39.5h207v-49 q0 -197 -47 -295q-80 -159 -270 -159h-2q-147 0 -240 108q-59 70 -74 172q-4 27 -6 74t-2 119z" />
<glyph unicode="D" horiz-adv-x="813" d="M92 0v1366h291q344 0 344 -387v-594q0 -385 -344 -385h-291zM297 190h63q102 0 138 72q24 47 24 153v9v518q0 113 -24 162q-33 70 -138 70h-63v-984z" />
<glyph unicode="E" horiz-adv-x="712" d="M92 0v1366h557v-192h-352v-371h252v-191h-252v-422h352v-190h-557z" />
<glyph unicode="F" horiz-adv-x="675" d="M92 0v1366h551v-192h-346v-371h250v-191h-250v-612h-205z" />
<glyph unicode="G" horiz-adv-x="817" d="M86 436v477q0 72 2 119t6 74q14 100 74 172q89 108 237 108h3q184 0 274 -151q23 -41 37 -109q11 -52 11 -123q0 -20 -1 -42v-11q0 -4 -1 -12t-1 -18h-207q2 20 2 34.5v24.5q0 47 -2 82t-10 57q-25 76 -102 76q-94 0 -111 -115q-6 -49 -6 -164v-454v-26.5t2 -67.5t5 -76 t11 -51q25 -70 99 -70q61 0 92 55q22 39 22 226v16v53h-125v172h330v-692h-98l-39 109q-78 -129 -217 -129q-176 0 -244 151q-43 100 -43 305z" />
<glyph unicode="H" horiz-adv-x="819" d="M92 0v1366h205v-559h227v559h205v-1366h-205v616h-227v-616h-205z" />
<glyph unicode="I" horiz-adv-x="387" d="M92 0v1366h205v-1366h-205z" />
<glyph unicode="J" horiz-adv-x="473" d="M20 0v190h50q74 0 96 72q6 18 8 52t2 83v969h205v-936q0 -211 -31 -291q-55 -139 -231 -139h-99z" />
<glyph unicode="K" horiz-adv-x="817" d="M92 0v1366h205v-547l240 547h215l-236 -475l266 -891h-217l-174 635l-94 -191v-444h-205z" />
<glyph unicode="L" horiz-adv-x="663" d="M92 0v1366h205v-1176h340v-190h-545z" />
<glyph unicode="M" horiz-adv-x="1058" d="M92 0v1366h275l168 -834l157 834h277v-1366h-193v944l-196 -944h-91l-206 944v-944h-191z" />
<glyph unicode="N" horiz-adv-x="860" d="M92 0v1366h207l279 -811v811h192v-1366h-192l-295 844v-844h-191z" />
<glyph unicode="O" horiz-adv-x="813" d="M86 444v476q0 66 2 112.5t6 75.5q18 98 74 170q89 108 237 108h3q150 0 239 -108q57 -66 72 -170q4 -29 6 -76t2 -112v-476q0 -66 -2 -112.5t-6 -73.5q-14 -100 -72 -170q-89 -108 -236 -108h-3q-150 0 -240 108q-53 61 -72 170q-4 29 -7 75t-3 111zM291 416 q0 -18 1 -30.5t1 -16.5q2 -45 5 -77t11 -52q25 -70 99 -70q100 0 110 117q2 23 3 62.5t1 94.5v488q0 66 -2 106.5t-6 57.5q-23 98 -106 98q-94 0 -111 -115q-6 -53 -6 -170v-444v-49z" />
<glyph unicode="P" horiz-adv-x="790" d="M92 0v1366h287q178 0 258 -74q96 -90 96 -338q0 -221 -96 -317q-74 -74 -258 -74h-82v-563h-205zM297 756h65q111 0 144 57q22 41 22 160q0 106 -24 147q-33 53 -142 54h-65v-418z" />
<glyph unicode="Q" horiz-adv-x="813" d="M86 444v476q0 66 2 112.5t6 75.5q8 51 26.5 93t47.5 77q85 108 237 108h3q150 0 239 -108q57 -66 72 -170q4 -29 6 -76t2 -112v-476q0 -221 -45 -303q35 -37 88 -43v-202q-86 2 -131 22q-55 25 -96 90q-66 -28 -131 -28h-4q-147 0 -240 108q-55 63 -74 170q-4 29 -6 75 t-2 111zM291 416q0 -18 1 -30.5t1 -16.5q2 -45 5 -77t11 -52q25 -70 99 -70q100 0 110 117q2 23 3 62.5t1 94.5v488q0 66 -2 106.5t-6 57.5q-23 98 -106 98q-94 0 -111 -115q-6 -53 -6 -170v-444v-49z" />
<glyph unicode="R" horiz-adv-x="796" d="M92 0v1366h287q186 0 270 -109q72 -96 72 -290q0 -242 -137 -342l157 -625h-217l-131 569h-96v-569h-205zM297 762h65q98 0 127 55q27 54 27 150q0 98 -27 151q-29 55 -127 56h-65v-412z" />
<glyph unicode="S" horiz-adv-x="759" d="M47 348l197 33q6 -211 145 -211q61 0 92 43q33 41 33 106q0 104 -117 220q-53 53 -107 105t-108 106q-116 136 -116 296q0 150 86 246q88 94 235 94q272 0 309 -327l-196 -29q-10 82 -27 113q-27 51 -94 51q-115 0 -115 -135q0 -111 117 -223q53 -53 107.5 -103.5 t107.5 -103.5q117 -139 117 -301q0 -152 -88 -248q-88 -100 -238 -100q-158 0 -250 108q-88 102 -90 260z" />
<glyph unicode="T" horiz-adv-x="671" d="M14 1174v192h643v-192h-221v-1174h-205v1174h-217z" />
<glyph unicode="U" horiz-adv-x="825" d="M92 444v922h205v-948q0 -123 8 -156q20 -92 107 -92q94 0 110 117q6 49 6 180v899h205v-922q0 -66 -3 -111.5t-7 -74.5q-18 -102 -72 -170q-89 -108 -236 -108h-3q-150 0 -240 108q-57 66 -72 170q-4 29 -6 75t-2 111z" />
<glyph unicode="V" horiz-adv-x="776" d="M35 1366h209l157 -874l140 874h200l-231 -1366h-215z" />
<glyph unicode="W" horiz-adv-x="1126" d="M41 1366h205l102 -817l129 817h170l135 -817l105 817h198l-206 -1366h-179l-141 827l-135 -827h-178z" />
<glyph unicode="X" horiz-adv-x="806" d="M35 0l256 702l-248 664h215l143 -403l134 403h210l-239 -664l266 -702h-215l-160 440l-151 -440h-211z" />
<glyph unicode="Y" horiz-adv-x="761" d="M27 1366h215l145 -537l139 537h207l-246 -813v-553h-204v553q-29 152 -125 432q-33 96 -66 190.5t-65 190.5z" />
<glyph unicode="Z" horiz-adv-x="720" d="M55 0v190l394 984h-365v192h584v-192l-394 -984h394v-190h-613z" />
<glyph unicode="[" horiz-adv-x="518" d="M102 -195v1561h328v-178h-147v-1204h147v-179h-328z" />
<glyph unicode="\" d="M53 1536h174l705 -1706h-174z" />
<glyph unicode="]" horiz-adv-x="518" d="M88 -16h148v1204h-148v178h328v-1561h-328v179z" />
<glyph unicode="^" d="M41 733l354 637h234l354 -637h-190l-283 496l-279 -496h-190z" />
<glyph unicode="_" d="M0 -127h1024v-160h-1024v160z" />
<glyph unicode="`" d="M367 1352h198l92 -164h-143z" />
<glyph unicode="a" horiz-adv-x="708" d="M61 227q0 158 121 267q59 55 254 165v66q0 70 -6 92q-16 47 -70 47q-76 0 -86 -139h-186q18 305 289 305q129 0 194 -86q49 -66 50 -239v-336q0 -260 20 -369h-186q-6 37 -13 115q-115 -129 -217 -129q-86 0 -129 82q-35 63 -35 159zM252 260q0 -106 63 -106q66 0 121 94 v270q-184 -117 -184 -258z" />
<glyph unicode="b" horiz-adv-x="692" d="M80 0v1366h184v-446q87 110 189 110h2q111 0 147 -115q18 -61 19 -204v-406q0 -141 -19 -205q-37 -114 -145 -114h-2q-98 0 -191 112v-98h-184zM264 199q45 -45 92 -45q80 0 80 137v434q0 139 -80 139q-47 0 -92 -45v-620z" />
<glyph unicode="c" horiz-adv-x="667" d="M72 330v356q0 162 59 240q80 104 221 104q145 0 217 -108q47 -72 47 -217q0 -10 -2 -19v-20h-184q0 55 -1 85.5t-3 39.5q-16 73 -80 73h-2q-88 0 -88 -141v-428q0 -141 88 -141q70 0 84 82q2 10 2 135h184v-27q0 -47 -1 -79t-3 -46q-10 -72 -41 -117q-77 -116 -217 -116 h-2q-139 0 -219 104q-59 78 -59 240z" />
<glyph unicode="d" horiz-adv-x="692" d="M72 305v406q0 143 18 204q35 115 148 115q100 0 190 -110v446h184v-1366h-184v98q-91 -112 -188 -112h-2q-111 0 -148 114q-18 63 -18 205zM256 291q0 -137 80 -137q47 0 92 45v620q-45 45 -92 45q-80 0 -80 -139v-434z" />
<glyph unicode="e" horiz-adv-x="696" d="M72 330v356q0 164 57 240q80 104 221 104q139 0 217 -104q57 -76 58 -240v-211h-369v-180q0 -141 94 -141q66 0 82 73q2 8 3 39t1 86h189v-26q0 -45 -1 -75t-3 -44q-10 -61 -43 -111q-77 -110 -221 -110h-3q-143 0 -223 104q-59 78 -59 240zM256 629h184v94 q0 141 -92 141t-92 -141v-94z" />
<glyph unicode="f" horiz-adv-x="458" d="M14 850v168h117v117q0 125 45 176q56 67 173 67h3q57 0 101 -14v-156q-27 2 -39.5 3t-10.5 1q-57 0 -75 -41q-12 -29 -13 -90v-63h117v-168h-117v-850h-184v850h-117z" />
<glyph unicode="g" horiz-adv-x="694" d="M23 -182q0 94 165 174q-116 45 -116 130q0 81 116 167q-117 76 -116 262v186q0 293 258 293q135 0 211 -112q55 100 141 108v-158q-66 0 -111 -39q2 -10 3 -31.5t1 -49.5v-197q0 -293 -254 -293q-19 0 -40 2q-43 -35 -43 -67q0 -45 118 -54q82 -4 136.5 -14t82.5 -21 q119 -48 119 -198q0 -268 -360 -268q-311 0 -311 180zM217 -121q0 -98 143 -98q59 0 109 22q61 31 61 84q0 70 -124 78q-18 2 -46 3t-65 5q-78 -37 -78 -94zM240 545q0 -131 84 -131q86 0 86 131v198q0 131 -86 131q-84 0 -84 -131v-198z" />
<glyph unicode="h" horiz-adv-x="690" d="M80 0v1366h184v-459q106 123 211 123q88 0 117 -74q18 -47 18 -149v-807h-184v750q0 63 -2 71q-10 43 -45 43q-57 0 -115 -86v-778h-184z" />
<glyph unicode="i" horiz-adv-x="342" d="M80 0v1018h184v-1018h-184zM80 1182v184h184v-184h-184z" />
<glyph unicode="j" horiz-adv-x="358" d="M-35 -158q33 -6 43 -6q88 0 88 115v1067h185v-1061q0 -156 -37 -219q-53 -86 -183 -86q-39 0 -96 12v178zM96 1182v184h185v-184h-185z" />
<glyph unicode="k" horiz-adv-x="692" d="M80 0v1366h184v-739l189 391h186l-184 -340l200 -678h-180l-131 473l-80 -147v-326h-184z" />
<glyph unicode="l" horiz-adv-x="342" d="M80 0v1366h184v-1366h-184z" />
<glyph unicode="m" horiz-adv-x="1036" d="M80 0v1018h184v-111q106 123 211 123q115 0 131 -123q63 66 94 86q55 37 121 37q88 0 119 -74q18 -47 18 -149v-807h-184v750q0 61 -2 69q-8 45 -45 45q-55 0 -117 -86v-778h-184v750q0 63 -2 71q-10 43 -45 43q-57 0 -115 -86v-778h-184z" />
<glyph unicode="n" horiz-adv-x="690" d="M80 0v1018h184v-111q106 123 211 123q88 0 117 -74q18 -47 18 -149v-807h-184v750q0 63 -2 71q-10 43 -45 43q-57 0 -115 -86v-778h-184z" />
<glyph unicode="o" horiz-adv-x="688" d="M72 330v356q0 164 57 240q76 104 215 104q137 0 215 -104q57 -76 57 -240v-356q0 -164 -57 -240q-78 -104 -215 -104q-139 0 -215 104q-57 76 -57 240zM256 295q0 -141 88 -141t88 141v428q0 141 -88 141t-88 -141v-428z" />
<glyph unicode="p" horiz-adv-x="692" d="M80 -348v1366h184v-98q87 110 189 110h2q111 0 147 -115q18 -61 19 -204v-406q0 -141 -19 -205q-37 -114 -145 -114h-2q-98 0 -191 112v-446h-184zM264 199q45 -45 92 -45q80 0 80 137v434q0 139 -80 139q-47 0 -92 -45v-620z" />
<glyph unicode="q" horiz-adv-x="692" d="M72 305v406q0 143 18 204q35 115 148 115q100 0 190 -110v98h184v-1366h-184v446q-91 -112 -188 -112h-2q-111 0 -148 114q-18 63 -18 205zM256 291q0 -137 80 -137q47 0 92 45v620q-45 45 -92 45q-80 0 -80 -139v-434z" />
<glyph unicode="r" horiz-adv-x="512" d="M80 0v1018h184v-146q23 39 44.5 68t41.5 45q51 41 133 45v-201q-37 10 -63 11q-156 0 -156 -226v-614h-184z" />
<glyph unicode="s" horiz-adv-x="641" d="M31 279l172 40q10 -41 17 -67.5t18 -42.5q31 -55 94 -55q90 0 90 94q0 72 -96 149q-90 72 -134.5 109t-46.5 39q-96 100 -96 221t78 192q78 72 199 72q233 0 270 -252l-174 -41q-29 127 -103 127q-86 0 -86 -92q0 -47 48 -98q25 -25 88 -74q29 -23 69.5 -55.5t91.5 -83.5 q41 -41 58.5 -92.5t17.5 -114.5q0 -127 -76 -197q-77 -71 -199 -71h-3q-250 0 -297 293z" />
<glyph unicode="t" horiz-adv-x="499" d="M31 850v168h114v278h185v-278h151v-168h-151v-520q0 -76 12 -107q18 -53 84 -53q25 0 55 8v-174q-78 -18 -129 -18q-106 0 -162 75q-45 59 -45 211v578h-114z" />
<glyph unicode="u" horiz-adv-x="690" d="M80 213v805h184v-750q0 -66 2 -71q6 -43 43 -43q55 0 117 86v778h184v-1018h-184v111q-111 -125 -211 -125q-92 0 -119 75q-16 49 -16 152z" />
<glyph unicode="v" horiz-adv-x="643" d="M27 1018h190l113 -631l102 631h182l-196 -1018h-174z" />
<glyph unicode="w" horiz-adv-x="960" d="M35 1018h174l98 -594l101 594h145l113 -582l92 582h168l-174 -1018h-162l-107 580l-100 -580h-162z" />
<glyph unicode="x" horiz-adv-x="661" d="M31 0l198 535l-198 483h194l103 -281l98 281h186l-186 -483l205 -535h-189l-116 322l-111 -322h-184z" />
<glyph unicode="y" horiz-adv-x="655" d="M35 1018h184l111 -656l110 656h181l-207 -1045q-37 -193 -74 -243q-61 -92 -227 -92q-27 0 -66 6v180q10 -2 37 -2q76 0 113 47q23 33 45 119z" />
<glyph unicode="z" horiz-adv-x="632" d="M55 0v156l314 694h-287v168h489v-168l-305 -682h305v-168h-516z" />
<glyph unicode="{" d="M285 432v146q115 29 114 174v352q0 152 70 215q70 68 223 67h82v-153q-119 0 -151 -27q-45 -33 -45 -143v-322q0 -80 -21 -135q-23 -59 -104 -108q74 -41 102 -103q23 -47 23 -143v-311q0 -63 6 -91q18 -84 190 -83v-154q-27 -2 -40 -2h-17q-172 0 -242 63 q-76 68 -76 238v332q0 160 -114 188z" />
<glyph unicode="|" d="M424 -512v2048h176v-2048h-176z" />
<glyph unicode="}" d="M276 -233q117 0 152 24q47 35 47 143v324q0 72 19 133q23 63 106 109q-72 41 -100 102q-25 51 -25 143v314q0 63 -6 88q-23 86 -193 86v153h89q154 0 221 -71q68 -72 67 -228v-333q0 -158 115 -187v-145q-115 -31 -115 -176v-350q0 -154 -69 -218q-72 -68 -226 -67h-37.5 t-44.5 2v154z" />
<glyph unicode="~" horiz-adv-x="1366" d="M188 1247q61 127 107 172q74 76 182 76q76 0 215 -61q135 -63 203 -64q98 0 176 129l105 -61q-115 -240 -304 -240q-70 0 -210 62q-139 63 -199 63q-96 0 -172 -141z" />
<glyph unicode="&#xa1;" horiz-adv-x="456" d="M123 -348l41 962h129l41 -962h-211zM129 805v213h199v-213h-199z" />
<glyph unicode="&#xa2;" horiz-adv-x="778" d="M117 518v356q0 287 223 338v222h109v-222q106 -23 165 -104q23 -35 38.5 -91t9.5 -138v-7q0 -4 -1.5 -9t-1.5 -11h-184q2 10 2 33q0 84 -8 108q-18 57 -80 58q-88 0 -88 -142v-428q0 -141 88 -141q61 0 80 66q4 14 6 42.5t2 71.5q0 27 -2 37h184q2 -10 2.5 -20.5 t0.5 -24.5q0 -152 -48 -223q-59 -86 -165 -111v-246h-109v246q-127 29 -180 121q-43 76 -43 219z" />
<glyph unicode="&#xa3;" horiz-adv-x="778" d="M4 106q92 143 209 158q39 76 39 158q0 72 -33 176h-174v125h135q-82 215 -82 324q0 150 82 243q84 96 230 96q301 0 301 -387l-193 -4q-4 203 -108 203q-113 0 -113 -145q0 -137 74 -330h211v-125h-174q25 -104 24 -168q0 -94 -53 -190q82 -45 127 -45q74 0 74 167 l174 -10q-4 -145 -45 -237q-61 -129 -185 -129q-63 0 -153 45q-98 47 -123 47q-59 0 -127 -98z" />
<glyph unicode="&#xa4;" horiz-adv-x="1366" d="M92 1233l98 98l199 -198q145 102 295 102q152 0 289 -100l198 196l99 -98l-197 -197q100 -143 101 -291q0 -145 -99 -286l199 -199l-98 -100l-199 198q-133 -100 -291 -100q-147 0 -295 98l-196 -196l-99 100l197 197q-100 131 -100 291q0 150 98 284zM354 745 q0 -135 97 -231q94 -98 231 -98t233 96q97 96 97 233q0 135 -97 232q-96 98 -231 98q-137 0 -233 -96t-97 -234z" />
<glyph unicode="&#xa5;" horiz-adv-x="778" d="M53 1366h203l139 -537l133 537h197l-197 -670h148v-127h-184v-569h-195v569h-184v127h145z" />
<glyph unicode="&#xa6;" d="M428 313h170v-827h-170v827zM428 674v862h170v-862h-170z" />
<glyph unicode="&#xa7;" horiz-adv-x="796" d="M82 733q0 147 172 215q-102 125 -102 217q0 102 73 162q76 59 178 59q117 0 187 -69q70 -70 69 -187v-29.5t-2 -31.5h-184v9t2 14v20q0 106 -74 107q-63 0 -63 -58q0 -23 47 -82l260 -317q70 -83 70 -187q0 -160 -154 -223q76 -94 76 -190q0 -111 -70 -168 q-72 -61 -180 -62q-125 0 -194 70q-72 72 -72 193q0 2 1 12t3 29h186q-2 -10 -2 -18.5v-18.5q0 -100 78 -101q66 0 66 66q0 25 -37 72l-221 266q-113 133 -113 231zM266 741q0 -29 41 -79l154 -187q69 30 69 100q0 35 -49 95l-133 157q-82 -33 -82 -86z" />
<glyph unicode="&#xa8;" d="M281 1184v182h176v-182h-176zM567 1184v182h176v-182h-176z" />
<glyph unicode="&#xa9;" horiz-adv-x="1515" d="M55 682q0 289 205 498q207 207 498 206q293 0 495 -206q207 -207 207 -498t-205 -496q-207 -207 -497 -206q-291 0 -496 204q-207 207 -207 498zM166 682q0 -248 172 -428q174 -180 420 -180q248 0 420 180t172 428q0 250 -172 428q-172 180 -420 180t-420 -180 q-172 -182 -172 -428zM563 545v293q0 113 21 155q51 111 182 111q117 0 172 -90q29 -47 29 -166v-27h-129q0 43 -1 68.5t-3 36.5q-14 63 -68 63q-55 0 -68 -57q-6 -23 -6 -101v-290q0 -80 6 -105q14 -61 66 -61q45 0 61 41q4 10 6.5 30.5t4.5 49.5q2 27 2 43v24h129v-28 q0 -125 -29 -179q-53 -96 -172 -96q-92 0 -152 66q-51 57 -51 219z" />
<glyph unicode="&#xaa;" horiz-adv-x="518" d="M90 608v68h342v-68h-342zM98 944q0 82 66 143q16 16 51 38t86 51v30q0 68 -37 68q-39 0 -41 -74h-112q8 172 163 172q137 0 138 -176q0 -160 3 -254t7 -123h-111q-2 10 -4 23.5t-4 29.5q-53 -59 -110 -59q-94 0 -95 131zM211 963q0 -51 29 -52q35 0 61 45v131 q-90 -59 -90 -124z" />
<glyph unicode="&#xab;" horiz-adv-x="630" d="M82 373v293l184 153v-231l-63 -70l63 -69v-230zM365 373v293l184 168v-246l-64 -70l64 -69v-244z" />
<glyph unicode="&#xac;" d="M68 387v160h888v-547h-178v387h-710z" />
<glyph unicode="&#xad;" horiz-adv-x="286" d="M0 426v184h287v-184h-287z" />
<glyph unicode="&#xae;" horiz-adv-x="993" d="M96 1141q0 172 115 299q117 129 287 129t284 -127q117 -129 117 -301q0 -174 -113 -299q-117 -131 -288 -131q-172 0 -289 131q-113 125 -113 299zM156 1141q0 -147 98 -258q98 -113 244 -113q147 0 245 113q95 108 95 258q0 145 -97 258q-98 111 -243 110 q-145 0 -244 -110q-98 -111 -98 -258zM385 915v451h104q121 0 121 -135q0 -80 -45 -111l53 -205h-79l-43 183h-29v-183h-82zM467 1171h16q47 1 47 60q0 61 -47 61h-16v-121z" />
<glyph unicode="&#xaf;" d="M313 1202v135h398v-135h-398z" />
<glyph unicode="&#xb0;" d="M215 1077q0 123 88 205q90 84 209 84t209 -84q88 -82 88 -205t-86 -205q-90 -86 -211 -86t-209 84q-88 86 -88 207zM328 1077q0 -76 53 -129q57 -53 131 -53t129 51t55 129q0 76 -53 129q-57 53 -131 53t-129 -51q-55 -53 -55 -129z" />
<glyph unicode="&#xb1;" d="M68 127v166h888v-166h-888zM68 713v166h356v340h176v-340h356v-166h-356v-340h-176v340h-356z" />
<glyph unicode="&#xb2;" horiz-adv-x="532" d="M68 545v119q63 86 104 146t64 95q96 164 96 273q0 80 -56 79q-45 0 -61 -53q-6 -25 -6 -92h-133q-2 8 -2 16.5v18.5q0 231 205 231q92 0 141 -55q51 -57 51 -149q0 -111 -90 -269q-23 -37 -62.5 -96t-99.5 -143h240v-121h-391z" />
<glyph unicode="&#xb3;" horiz-adv-x="532" d="M72 791h135q-2 -10 -2 -31q0 -104 61 -105q61 0 62 125q0 78 -23 105q-20 27 -104 26v121q76 2 96 23q23 23 22 94q0 109 -53 108q-72 0 -51 -124h-133v24q0 94 47 158q49 63 141 63q178 0 179 -227q0 -135 -70 -178q82 -45 82 -197q0 -242 -193 -241q-197 0 -196 256z " />
<glyph unicode="&#xb4;" d="M367 1188l92 164h198l-147 -164h-143z" />
<glyph unicode="&#xb6;" horiz-adv-x="856" d="M82 1006q0 156 96 258t250 102h352v-61h-82v-1510h-98v1510h-113v-1510h-100v860q-135 4 -219 109q-86 104 -86 242z" />
<glyph unicode="&#xb7;" horiz-adv-x="221" d="M0 592v237h221v-237h-221z" />
<glyph unicode="&#xb8;" d="M373 -311l24 69q37 -25 97 -24q59 0 59 65q0 70 -90 70q-8 0 -19 -2h-18l35 133h76l-17 -59q133 -13 133 -144q0 -66 -43 -102q-41 -39 -108 -39q-88 0 -129 33z" />
<glyph unicode="&#xb9;" horiz-adv-x="532" d="M111 1180v88q82 16 151 98h92v-819h-137v633h-106z" />
<glyph unicode="&#xba;" horiz-adv-x="518" d="M90 608v68h342v-68h-342zM106 999v187q0 186 154 186q152 0 152 -186v-187q0 -186 -152 -186q-154 0 -154 186zM217 979q0 -68 43 -68q41 0 41 68v225q0 70 -41 70q-43 0 -43 -70v-225z" />
<glyph unicode="&#xbb;" horiz-adv-x="630" d="M82 205v244l63 69l-63 70v246l184 -168v-293zM365 219v230l63 69l-63 70v231l184 -153v-293z" />
<glyph unicode="&#xbc;" horiz-adv-x="1241" d="M111 1180v88q82 16 151 98h92v-819h-137v633h-106zM342 -68l455 1502h104l-465 -1502h-94zM754 197v116l223 506h133v-502h80v-120h-80v-197h-131v197h-225zM864 313h119v293z" />
<glyph unicode="&#xbd;" horiz-adv-x="1241" d="M111 1180v88q82 16 151 98h92v-819h-137v633h-106zM342 -68l455 1502h104l-465 -1502h-94zM776 0v119q61 86 103.5 145.5t64.5 95.5q96 160 96 271q0 80 -55 80q-45 0 -61 -54q-6 -25 -6 -92h-134q-2 8 -2 16.5v18.5q0 231 205 231q92 0 141 -55q52 -57 52 -149 q0 -111 -90 -269q-41 -74 -162 -237h239v-121h-391z" />
<glyph unicode="&#xbe;" horiz-adv-x="1241" d="M72 791h135q-2 -10 -2 -31q0 -104 61 -105q61 0 62 125q0 78 -23 105q-20 27 -104 26v121q76 2 96 23q23 23 22 94q0 109 -53 108q-72 0 -51 -124h-133v24q0 94 47 158q49 63 141 63q178 0 179 -227q0 -135 -70 -178q82 -45 82 -197q0 -242 -193 -241q-197 0 -196 256z M342 -68l455 1502h104l-465 -1502h-94zM754 197v116l223 506h133v-502h80v-120h-80v-197h-131v197h-225zM864 313h119v293z" />
<glyph unicode="&#xbf;" horiz-adv-x="708" d="M82 -109q0 106 78 246q47 86 75.5 143.5t36.5 92.5q18 68 19 241h164v-43q0 -160 -25 -266q-10 -51 -41 -118.5t-78 -153.5q-45 -78 -45 -131q0 -96 76 -97q78 0 131 146l166 -66q-76 -248 -297 -247q-119 0 -188 67q-72 68 -72 186zM270 805v213h199v-213h-199z" />
<glyph unicode="&#xc0;" horiz-adv-x="829" d="M55 0l221 1366h269l237 -1366h-211l-47 301h-221l-45 -301h-203zM195 1638h196l94 -163h-143zM332 492h162l-84 544z" />
<glyph unicode="&#xc1;" horiz-adv-x="829" d="M55 0l221 1366h269l237 -1366h-211l-47 301h-221l-45 -301h-203zM317 1475l93 163h198l-147 -163h-144zM332 492h162l-84 544z" />
<glyph unicode="&#xc2;" horiz-adv-x="829" d="M55 0l221 1366h269l237 -1366h-211l-47 301h-221l-45 -301h-203zM193 1475l118 163h207l119 -163h-164l-59 63l-58 -63h-163zM332 492h162l-84 544z" />
<glyph unicode="&#xc3;" horiz-adv-x="829" d="M55 0l221 1366h269l237 -1366h-211l-47 301h-221l-45 -301h-203zM217 1470v142q55 31 113 30q39 0 94 -20q59 -20 92 -20q37 0 96 34v-141q-59 -35 -96 -35q-35 0 -92 19q-59 20 -94 20q-59 0 -113 -29zM332 492h162l-84 544z" />
<glyph unicode="&#xc4;" horiz-adv-x="829" d="M55 0l221 1366h269l237 -1366h-211l-47 301h-221l-45 -301h-203zM182 1475v182h178v-182h-178zM332 492h162l-84 544zM469 1475v182h178v-182h-178z" />
<glyph unicode="&#xc5;" horiz-adv-x="829" d="M55 0l221 1366h269l237 -1366h-211l-47 301h-221l-45 -301h-203zM264 1591q0 61 45 101q47 41 107 41q57 0 104 -41q45 -40 45 -101t-43 -100q-47 -43 -106 -43t-107 41q-45 39 -45 102zM332 492h162l-84 544zM340 1591q0 -33 22 -51q23 -23 54 -22q31 0 51 20 q22 22 22 53q0 29 -20 49t-53 21q-33 0 -54 -21q-23 -23 -22 -49z" />
<glyph unicode="&#xc6;" horiz-adv-x="1179" d="M35 0l424 1366h655v-192h-352v-371h254v-191h-254v-422h352v-190h-557v301h-219l-90 -301h-213zM395 492h162v544z" />
<glyph unicode="&#xc7;" horiz-adv-x="794" d="M86 453v460q0 72 2 120t6 73q14 100 74 172q90 109 240 108q182 0 272 -151q47 -84 47 -274v-48h-207v33q0 127 -8 158q-23 90 -106 90q-92 0 -109 -115q-6 -47 -6 -180v-432q0 -131 6 -180q14 -117 109 -117q74 0 98 72q10 31 14 129q2 45 2 72.5v39.5h207v-49 q0 -197 -47 -295q-72 -141 -236 -157l-10 -41q133 -13 133 -144q0 -66 -43 -102q-41 -39 -108 -39q-88 0 -129 33l24 69q37 -25 97 -24q59 0 59 65q0 70 -90 70q-8 0 -19 -2h-18l29 115q-125 16 -201 106q-59 70 -74 172q-4 27 -6 74t-2 119z" />
<glyph unicode="&#xc8;" horiz-adv-x="712" d="M92 0v1366h557v-192h-352v-371h252v-191h-252v-422h352v-190h-557zM150 1638h198l92 -163h-143z" />
<glyph unicode="&#xc9;" horiz-adv-x="712" d="M92 0v1366h557v-192h-352v-371h252v-191h-252v-422h352v-190h-557zM287 1475l92 163h199l-148 -163h-143z" />
<glyph unicode="&#xca;" horiz-adv-x="712" d="M92 0v1366h557v-192h-352v-371h252v-191h-252v-422h352v-190h-557zM147 1475l121 163h205l121 -163h-166l-57 63l-58 -63h-166z" />
<glyph unicode="&#xcb;" horiz-adv-x="712" d="M92 0v1366h557v-192h-352v-371h252v-191h-252v-422h352v-190h-557zM139 1475v182h176v-182h-176zM426 1475v182h176v-182h-176z" />
<glyph unicode="&#xcc;" horiz-adv-x="387" d="M-27 1638h199l92 -163h-143zM92 0v1366h205v-1366h-205z" />
<glyph unicode="&#xcd;" horiz-adv-x="387" d="M92 0v1366h205v-1366h-205zM96 1475l92 163h199l-147 -163h-144z" />
<glyph unicode="&#xce;" horiz-adv-x="387" d="M-6 1475l106 163h187l106 -163h-147l-51 63l-54 -63h-147zM92 0v1366h205v-1366h-205z" />
<glyph unicode="&#xcf;" horiz-adv-x="387" d="M6 1475v182h144v-182h-144zM92 0v1366h205v-1366h-205zM238 1475v182h145v-182h-145z" />
<glyph unicode="&#xd0;" horiz-adv-x="813" d="M23 612v191h67v563h291q346 0 346 -387v-594q0 -385 -346 -385h-291v612h-67zM295 190h63q106 0 140 70q25 49 24 164v518q0 115 -24 164q-33 70 -140 70h-63v-373h117v-191h-117v-422z" />
<glyph unicode="&#xd1;" horiz-adv-x="860" d="M92 0v1366h207l279 -811v811h192v-1366h-192l-295 844v-844h-191zM233 1470v142q51 31 113 30q39 0 94 -20q59 -20 92 -20q37 0 97 34v-141q-63 -35 -99 -35q-35 0 -92 19q-55 20 -92 20q-61 0 -113 -29z" />
<glyph unicode="&#xd2;" horiz-adv-x="813" d="M86 444v476q0 66 2 112.5t6 75.5q18 98 74 170q90 109 240 108q150 0 239 -108q57 -66 72 -170q4 -29 6 -76t2 -112v-476q0 -66 -2 -112.5t-6 -73.5q-14 -100 -72 -170q-90 -109 -239 -108q-150 0 -240 108q-53 61 -72 170q-4 29 -7 75t-3 111zM172 1638h199l94 -163 h-146zM291 416q0 -18 1 -30.5t1 -16.5q2 -45 5 -77t11 -52q25 -70 99 -70q100 0 110 117q2 23 3 62.5t1 94.5v488q0 66 -2 106.5t-6 57.5q-23 98 -106 98q-94 0 -111 -115q-6 -53 -6 -170v-444v-49z" />
<glyph unicode="&#xd3;" horiz-adv-x="813" d="M86 444v476q0 66 2 112.5t6 75.5q18 98 74 170q90 109 240 108q150 0 239 -108q57 -66 72 -170q4 -29 6 -76t2 -112v-476q0 -66 -2 -112.5t-6 -73.5q-14 -100 -72 -170q-90 -109 -239 -108q-150 0 -240 108q-53 61 -72 170q-4 29 -7 75t-3 111zM291 416q0 -18 1 -30.5 t1 -16.5q2 -45 5 -77t11 -52q25 -70 99 -70q100 0 110 117q2 23 3 62.5t1 94.5v488q0 66 -2 106.5t-6 57.5q-23 98 -106 98q-94 0 -111 -115q-6 -53 -6 -170v-444v-49zM336 1475l94 163h199l-150 -163h-143z" />
<glyph unicode="&#xd4;" horiz-adv-x="813" d="M86 444v476q0 66 2 112.5t6 75.5q18 98 74 170q90 109 240 108q150 0 239 -108q57 -66 72 -170q4 -29 6 -76t2 -112v-476q0 -66 -2 -112.5t-6 -73.5q-14 -100 -72 -170q-90 -109 -239 -108q-150 0 -240 108q-53 61 -72 170q-4 29 -7 75t-3 111zM184 1475l119 163h207 l119 -163h-164l-57 63l-60 -63h-164zM291 416q0 -18 1 -30.5t1 -16.5q2 -45 5 -77t11 -52q25 -70 99 -70q100 0 110 117q2 23 3 62.5t1 94.5v488q0 66 -2 106.5t-6 57.5q-23 98 -106 98q-94 0 -111 -115q-6 -53 -6 -170v-444v-49z" />
<glyph unicode="&#xd5;" horiz-adv-x="813" d="M86 444v476q0 66 2 112.5t6 75.5q18 98 74 170q90 109 240 108q150 0 239 -108q57 -66 72 -170q4 -29 6 -76t2 -112v-476q0 -66 -2 -112.5t-6 -73.5q-14 -100 -72 -170q-90 -109 -239 -108q-150 0 -240 108q-53 61 -72 170q-4 29 -7 75t-3 111zM209 1470v142 q55 31 115 30q37 0 92 -20q59 -20 92 -20q37 0 96 34v-141q-59 -35 -96 -35q-35 0 -92 19q-55 20 -92 20q-61 0 -115 -29zM291 416q0 -18 1 -30.5t1 -16.5q2 -45 5 -77t11 -52q25 -70 99 -70q100 0 110 117q2 23 3 62.5t1 94.5v488q0 66 -2 106.5t-6 57.5q-23 98 -106 98 q-94 0 -111 -115q-6 -53 -6 -170v-444v-49z" />
<glyph unicode="&#xd6;" horiz-adv-x="813" d="M86 444v476q0 66 2 112.5t6 75.5q18 98 74 170q90 109 240 108q150 0 239 -108q57 -66 72 -170q4 -29 6 -76t2 -112v-476q0 -66 -2 -112.5t-6 -73.5q-14 -100 -72 -170q-90 -109 -239 -108q-150 0 -240 108q-53 61 -72 170q-4 29 -7 75t-3 111zM174 1475v182h178v-182 h-178zM291 416q0 -18 1 -30.5t1 -16.5q2 -45 5 -77t11 -52q25 -70 99 -70q100 0 110 117q2 23 3 62.5t1 94.5v488q0 66 -2 106.5t-6 57.5q-23 98 -106 98q-94 0 -111 -115q-6 -53 -6 -170v-444v-49zM461 1475v182h178v-182h-178z" />
<glyph unicode="&#xd7;" d="M139 430l252 252l-241 242l124 125l242 -242l252 252l117 -117l-252 -252l241 -241l-124 -125l-242 241l-252 -252z" />
<glyph unicode="&#xd8;" horiz-adv-x="813" d="M68 -25l63 168q-45 88 -45 301v476q0 66 2 112.5t6 75.5q14 98 74 170q90 109 240 108q96 0 182 -55l22 58h109l-53 -140q41 -70 53 -159q6 -47 6 -170v-476q0 -66 -2 -112.5t-6 -73.5q-14 -100 -72 -170q-90 -109 -239 -108q-115 0 -203 69l-29 -74h-108zM291 557 l217 563q-29 74 -100 74q-94 0 -111 -115q-6 -53 -6 -170v-352zM297 287q12 -117 111 -117q100 0 110 117q2 23 3 62.5t1 92.5v432z" />
<glyph unicode="&#xd9;" horiz-adv-x="825" d="M92 444v922h205v-948q0 -123 8 -156q20 -92 107 -92q94 0 110 117q6 49 6 180v899h205v-922q0 -66 -3 -111.5t-7 -74.5q-18 -102 -72 -170q-90 -109 -239 -108q-150 0 -240 108q-57 66 -72 170q-4 29 -6 75t-2 111zM190 1638h199l94 -163h-143z" />
<glyph unicode="&#xda;" horiz-adv-x="825" d="M92 444v922h205v-948q0 -123 8 -156q20 -92 107 -92q94 0 110 117q6 49 6 180v899h205v-922q0 -66 -3 -111.5t-7 -74.5q-18 -102 -72 -170q-90 -109 -239 -108q-150 0 -240 108q-57 66 -72 170q-4 29 -6 75t-2 111zM328 1475l94 163h199l-150 -163h-143z" />
<glyph unicode="&#xdb;" horiz-adv-x="825" d="M92 444v922h205v-948q0 -123 8 -156q20 -92 107 -92q94 0 110 117q6 49 6 180v899h205v-922q0 -66 -3 -111.5t-7 -74.5q-18 -102 -72 -170q-90 -109 -239 -108q-150 0 -240 108q-57 66 -72 170q-4 29 -6 75t-2 111zM190 1475l119 163h205l121 -163h-164l-59 63l-58 -63 h-164z" />
<glyph unicode="&#xdc;" horiz-adv-x="825" d="M92 444v922h205v-948q0 -123 8 -156q20 -92 107 -92q94 0 110 117q6 49 6 180v899h205v-922q0 -66 -3 -111.5t-7 -74.5q-18 -102 -72 -170q-90 -109 -239 -108q-150 0 -240 108q-57 66 -72 170q-4 29 -6 75t-2 111zM180 1475v182h178v-182h-178zM467 1475v182h178v-182 h-178z" />
<glyph unicode="&#xdd;" horiz-adv-x="761" d="M27 1366h215l145 -537l139 537h207l-246 -813v-553h-204v553q-29 152 -125 432q-33 96 -66 190.5t-65 190.5zM283 1475l94 163h196l-147 -163h-143z" />
<glyph unicode="&#xde;" horiz-adv-x="800" d="M92 0v1366h205v-233h82q205 0 285 -99q69 -88 69 -301t-69 -301q-80 -100 -285 -100h-82v-332h-205zM297 522h65q109 0 142 53q24 39 24 158q0 115 -24 156q-35 53 -142 53h-65v-420z" />
<glyph unicode="&#xdf;" horiz-adv-x="700" d="M80 0v1085q0 131 67 211q68 82 195 82q117 0 182 -65q66 -70 66 -185q0 -137 -105 -182q94 -51 125 -196q15 -70 15 -244q0 -506 -228 -506h-65v168h24q29 0 43 20q41 51 41 342q0 156 -14 213q-23 96 -94 107v168q88 2 88 98t-76 96q-80 0 -80 -137v-1075h-184z" />
<glyph unicode="&#xe0;" horiz-adv-x="708" d="M61 227q0 158 121 267q59 55 254 165v66q0 70 -6 92q-16 47 -70 47q-76 0 -86 -139h-186q18 305 289 305q129 0 194 -86q49 -66 50 -239v-336q0 -260 20 -369h-186q-6 37 -13 115q-115 -129 -217 -129q-86 0 -129 82q-35 63 -35 159zM147 1352h199l92 -164h-143zM252 260 q0 -106 63 -106q66 0 121 94v270q-184 -117 -184 -258z" />
<glyph unicode="&#xe1;" horiz-adv-x="708" d="M61 227q0 158 121 267q59 55 254 165v66q0 70 -6 92q-16 47 -70 47q-76 0 -86 -139h-186q18 305 289 305q129 0 194 -86q49 -66 50 -239v-336q0 -260 20 -369h-186q-6 37 -13 115q-115 -129 -217 -129q-86 0 -129 82q-35 63 -35 159zM252 260q0 -106 63 -106q66 0 121 94 v270q-184 -117 -184 -258zM283 1188l94 164h198l-147 -164h-145z" />
<glyph unicode="&#xe2;" horiz-adv-x="708" d="M61 227q0 158 121 267q59 55 254 165v66q0 70 -6 92q-16 47 -70 47q-76 0 -86 -139h-186q18 305 289 305q129 0 194 -86q49 -66 50 -239v-336q0 -260 20 -369h-186q-6 37 -13 115q-115 -129 -217 -129q-86 0 -129 82q-35 63 -35 159zM131 1188l121 164h205l121 -164h-166 l-58 63l-57 -63h-166zM252 260q0 -106 63 -106q66 0 121 94v270q-184 -117 -184 -258z" />
<glyph unicode="&#xe3;" horiz-adv-x="708" d="M61 227q0 158 121 267q59 55 254 165v66q0 70 -6 92q-16 47 -70 47q-76 0 -86 -139h-186q18 305 289 305q129 0 194 -86q49 -66 50 -239v-336q0 -260 20 -369h-186q-6 37 -13 115q-115 -129 -217 -129q-86 0 -129 82q-35 63 -35 159zM156 1188v141q55 31 114 31 q33 0 92 -19q59 -20 95 -20q33 0 96 35v-142q-59 -35 -98 -34q-35 0 -93 18q-55 20 -92 21q-59 0 -114 -31zM252 260q0 -106 63 -106q66 0 121 94v270q-184 -117 -184 -258z" />
<glyph unicode="&#xe4;" horiz-adv-x="708" d="M61 227q0 158 121 267q59 55 254 165v66q0 70 -6 92q-16 47 -70 47q-76 0 -86 -139h-186q18 305 289 305q129 0 194 -86q49 -66 50 -239v-336q0 -260 20 -369h-186q-6 37 -13 115q-115 -129 -217 -129q-86 0 -129 82q-35 63 -35 159zM123 1184v182h176v-182h-176z M252 260q0 -106 63 -106q66 0 121 94v270q-184 -117 -184 -258zM410 1184v182h176v-182h-176z" />
<glyph unicode="&#xe5;" horiz-adv-x="708" d="M61 227q0 158 121 267q59 55 254 165v66q0 70 -6 92q-16 47 -70 47q-76 0 -86 -139h-186q18 305 289 305q129 0 194 -86q49 -66 50 -239v-336q0 -260 20 -369h-186q-6 37 -13 115q-115 -129 -217 -129q-86 0 -129 82q-35 63 -35 159zM227 1288q0 61 45 101q47 41 105 41 q57 0 104 -41q45 -40 45 -101q0 -63 -43 -102q-47 -41 -106 -41t-105 41q-45 39 -45 102zM252 260q0 -106 63 -106q66 0 121 94v270q-184 -117 -184 -258zM301 1288q0 -33 23 -51q23 -23 53 -23q29 0 53 21q23 22 23 53q0 27 -23 49q-20 20 -53 21q-33 0 -53 -21 q-23 -23 -23 -49z" />
<glyph unicode="&#xe6;" horiz-adv-x="1060" d="M61 229q0 150 123 265q61 57 252 165v66q0 70 -6 92q-16 47 -70 47q-76 0 -86 -139h-186q8 137 80 221q74 84 209 84q98 0 166 -55q80 55 172 55q139 0 217 -104q57 -76 57 -240v-211h-368v-180q0 -141 94 -141q66 0 82 73q2 8 3 39t1 86h188v-26q0 -45 -1 -75t-3 -44 q-10 -61 -43 -111q-78 -111 -225 -110q-156 0 -238 129q-123 -129 -231 -129q-94 0 -144 77q-43 63 -43 166zM252 260q0 -106 63 -106q66 0 121 94v270q-184 -117 -184 -258zM621 629h184v94q0 141 -92 141t-92 -141v-94z" />
<glyph unicode="&#xe7;" horiz-adv-x="667" d="M72 330v356q0 162 59 240q80 104 221 104q145 0 217 -108q47 -72 47 -217q0 -10 -2 -19v-20h-184q0 55 -1 85.5t-3 39.5q-16 74 -82 73q-88 0 -88 -141v-428q0 -141 88 -141q70 0 84 82q2 10 2 135h184v-27q0 -47 -1 -79t-3 -46q-10 -72 -41 -117q-66 -98 -180 -114 l-12 -47q133 -13 133 -144q0 -66 -43 -102q-41 -39 -109 -39q-88 0 -129 33l25 69q37 -25 96 -24q59 0 60 65q0 70 -91 70q-8 0 -18 -2h-18l30 121q-117 16 -182 102q-59 78 -59 240z" />
<glyph unicode="&#xe8;" horiz-adv-x="696" d="M72 330v356q0 164 57 240q80 104 221 104q139 0 217 -104q57 -76 58 -240v-211h-369v-180q0 -141 94 -141q66 0 82 73q2 8 3 39t1 86h189v-26q0 -45 -1 -75t-3 -44q-10 -61 -43 -111q-78 -111 -224 -110q-143 0 -223 104q-59 78 -59 240zM127 1352h199l94 -164h-144z M256 629h184v94q0 141 -92 141t-92 -141v-94z" />
<glyph unicode="&#xe9;" horiz-adv-x="696" d="M72 330v356q0 164 57 240q80 104 221 104q139 0 217 -104q57 -76 58 -240v-211h-369v-180q0 -141 94 -141q66 0 82 73q2 8 3 39t1 86h189v-26q0 -45 -1 -75t-3 -44q-10 -61 -43 -111q-78 -111 -224 -110q-143 0 -223 104q-59 78 -59 240zM256 629h184v94q0 141 -92 141 t-92 -141v-94zM264 1188l92 164h199l-147 -164h-144z" />
<glyph unicode="&#xea;" horiz-adv-x="696" d="M72 330v356q0 164 57 240q80 104 221 104q139 0 217 -104q57 -76 58 -240v-211h-369v-180q0 -141 94 -141q66 0 82 73q2 8 3 39t1 86h189v-26q0 -45 -1 -75t-3 -44q-10 -61 -43 -111q-78 -111 -224 -110q-143 0 -223 104q-59 78 -59 240zM125 1188l121 164h205l120 -164 h-165l-58 63l-57 -63h-166zM256 629h184v94q0 141 -92 141t-92 -141v-94z" />
<glyph unicode="&#xeb;" horiz-adv-x="696" d="M72 330v356q0 164 57 240q80 104 221 104q139 0 217 -104q57 -76 58 -240v-211h-369v-180q0 -141 94 -141q66 0 82 73q2 8 3 39t1 86h189v-26q0 -45 -1 -75t-3 -44q-10 -61 -43 -111q-78 -111 -224 -110q-143 0 -223 104q-59 78 -59 240zM117 1184v182h176v-182h-176z M256 629h184v94q0 141 -92 141t-92 -141v-94zM403 1184v182h177v-182h-177z" />
<glyph unicode="&#xec;" horiz-adv-x="342" d="M-23 1352h199l94 -164h-145zM80 0v1018h184v-1018h-184z" />
<glyph unicode="&#xed;" horiz-adv-x="342" d="M74 1188l92 164h199l-148 -164h-143zM80 0v1018h184v-1018h-184z" />
<glyph unicode="&#xee;" horiz-adv-x="342" d="M-8 1188l96 164h166l98 -164h-133l-47 63l-47 -63h-133zM80 0v1018h184v-1018h-184z" />
<glyph unicode="&#xef;" horiz-adv-x="342" d="M2 1184v182h129v-182h-129zM80 0v1018h184v-1018h-184zM211 1184v182h129v-182h-129z" />
<glyph unicode="&#xf0;" horiz-adv-x="688" d="M72 332v381q0 176 41 239q51 80 159 80q84 0 156 -86q-14 154 -70 238l-98 -82l-53 63l104 86l-27.5 27.5t-25.5 24.5l94 92q14 -10 29.5 -24.5t34.5 -31.5l98 82l53 -61l-96 -80q145 -182 145 -500v-448q0 -166 -57 -242q-78 -104 -215 -104q-139 0 -215 104 q-57 76 -57 242zM256 295q0 -141 88 -141t88 141v428q0 141 -88 141t-88 -141v-428z" />
<glyph unicode="&#xf1;" horiz-adv-x="690" d="M80 0v1018h184v-111q106 123 211 123q88 0 117 -74q18 -47 18 -149v-807h-184v750q0 63 -2 71q-10 43 -45 43q-57 0 -115 -86v-778h-184zM147 1188v141q55 31 113 31q33 0 92 -19q59 -20 94 -20q37 0 97 35v-142q-57 -35 -97 -34q-35 0 -92 18q-59 20 -94 21 q-57 0 -113 -31z" />
<glyph unicode="&#xf2;" horiz-adv-x="688" d="M72 330v356q0 164 57 240q76 104 215 104q137 0 215 -104q57 -76 57 -240v-356q0 -164 -57 -240q-78 -104 -215 -104q-139 0 -215 104q-57 76 -57 240zM123 1352h199l94 -164h-144zM256 295q0 -141 88 -141t88 141v428q0 141 -88 141t-88 -141v-428z" />
<glyph unicode="&#xf3;" horiz-adv-x="688" d="M72 330v356q0 164 57 240q76 104 215 104q137 0 215 -104q57 -76 57 -240v-356q0 -164 -57 -240q-78 -104 -215 -104q-139 0 -215 104q-57 76 -57 240zM256 295q0 -141 88 -141t88 141v428q0 141 -88 141t-88 -141v-428zM274 1188l93 164h198l-147 -164h-144z" />
<glyph unicode="&#xf4;" horiz-adv-x="688" d="M72 330v356q0 164 57 240q76 104 215 104q137 0 215 -104q57 -76 57 -240v-356q0 -164 -57 -240q-78 -104 -215 -104q-139 0 -215 104q-57 76 -57 240zM123 1188l119 164h204l121 -164h-166l-57 63l-57 -63h-164zM256 295q0 -141 88 -141t88 141v428q0 141 -88 141 t-88 -141v-428z" />
<glyph unicode="&#xf5;" horiz-adv-x="688" d="M72 330v356q0 164 57 240q76 104 215 104q137 0 215 -104q57 -76 57 -240v-356q0 -164 -57 -240q-78 -104 -215 -104q-139 0 -215 104q-57 76 -57 240zM147 1188v141q51 31 113 31q33 0 92 -19q59 -20 94 -20q37 0 97 35v-142q-59 -35 -99 -34q-35 0 -92 18 q-55 20 -92 21q-61 0 -113 -31zM256 295q0 -141 88 -141t88 141v428q0 141 -88 141t-88 -141v-428z" />
<glyph unicode="&#xf6;" horiz-adv-x="688" d="M72 330v356q0 164 57 240q76 104 215 104q137 0 215 -104q57 -76 57 -240v-356q0 -164 -57 -240q-78 -104 -215 -104q-139 0 -215 104q-57 76 -57 240zM113 1184v182h178v-182h-178zM256 295q0 -141 88 -141t88 141v428q0 141 -88 141t-88 -141v-428zM399 1184v182h179 v-182h-179z" />
<glyph unicode="&#xf7;" d="M68 604v164h888v-164h-888zM397 317q0 47 33 80q35 35 82 35t80 -33t33 -82q0 -45 -33 -77q-33 -35 -80 -35t-80 33q-35 35 -35 79zM397 1053q0 47 33 80t82 32q45 0 78 -32q35 -33 35 -80t-33 -80q-35 -35 -80 -35q-47 0 -80 33q-35 35 -35 82z" />
<glyph unicode="&#xf8;" horiz-adv-x="688" d="M72 330v356q0 164 57 240q76 104 217 104q47 0 88 -14l17 63h81l-26 -100q111 -84 110 -293v-356q0 -164 -57 -240q-78 -104 -215 -104q-39 0 -84 14l-20 -86h-82l30 121q-74 55 -98 131q-18 57 -18 164zM256 311l135 539q-23 14 -45 14q-90 0 -90 -141v-412zM301 166 q20 -12 43 -12q88 0 88 141v387z" />
<glyph unicode="&#xf9;" horiz-adv-x="690" d="M80 213v805h184v-750q0 -66 2 -71q6 -43 43 -43q55 0 117 86v778h184v-1018h-184v111q-111 -125 -211 -125q-92 0 -119 75q-16 49 -16 152zM125 1352h197l94 -164h-144z" />
<glyph unicode="&#xfa;" horiz-adv-x="690" d="M80 213v805h184v-750q0 -66 2 -71q6 -43 43 -43q55 0 117 86v778h184v-1018h-184v111q-111 -125 -211 -125q-92 0 -119 75q-16 49 -16 152zM274 1188l93 164h198l-147 -164h-144z" />
<glyph unicode="&#xfb;" horiz-adv-x="690" d="M80 213v805h184v-750q0 -66 2 -71q6 -43 43 -43q55 0 117 86v778h184v-1018h-184v111q-111 -125 -211 -125q-92 0 -119 75q-16 49 -16 152zM123 1188l119 164h207l118 -164h-164l-59 63l-57 -63h-164z" />
<glyph unicode="&#xfc;" horiz-adv-x="690" d="M80 213v805h184v-750q0 -66 2 -71q6 -43 43 -43q55 0 117 86v778h184v-1018h-184v111q-111 -125 -211 -125q-92 0 -119 75q-16 49 -16 152zM113 1184v182h178v-182h-178zM399 1184v182h179v-182h-179z" />
<glyph unicode="&#xfd;" horiz-adv-x="655" d="M35 1018h184l111 -656l110 656h181l-207 -1045q-37 -193 -74 -243q-61 -92 -227 -92q-27 0 -66 6v180q10 -2 37 -2q76 0 113 47q23 33 45 119zM252 1188l94 164h197l-148 -164h-143z" />
<glyph unicode="&#xfe;" horiz-adv-x="692" d="M80 -348v1714h184v-446q92 113 191 112q111 0 147 -114q18 -66 19 -205v-408q0 -141 -19 -205q-37 -115 -147 -114q-98 0 -191 112v-446h-184zM264 199q45 -45 92 -45q80 0 80 137v436q0 137 -80 137q-47 0 -92 -45v-620z" />
<glyph unicode="&#xff;" horiz-adv-x="655" d="M35 1018h184l111 -656l110 656h181l-207 -1045q-37 -193 -74 -243q-61 -92 -227 -92q-27 0 -66 6v180q10 -2 37 -2q76 0 113 47q23 33 45 119zM96 1184v182h176v-182h-176zM383 1184v182h176v-182h-176z" />
<glyph unicode="&#x152;" horiz-adv-x="1142" d="M88 385v594q0 387 346 387h645v-192h-354v-371h254v-191h-254v-422h354v-190h-645q-346 0 -346 385zM293 397q0 -102 26 -147q37 -59 138 -60h63v984h-63q-98 0 -135 -58q-29 -47 -29 -147v-572z" />
<glyph unicode="&#x153;" horiz-adv-x="1067" d="M82 330v356q0 164 57 240q76 104 215 104q98 0 181 -65q84 66 184 65q137 0 217 -104q57 -76 57 -240v-211h-366v-180q0 -141 92 -141q68 0 84 73q2 10 3 41t1 84h186v-26q0 -45 -1 -75t-3 -44q-10 -61 -43 -111q-78 -111 -221 -110q-104 0 -190 67q-84 -68 -181 -67 q-139 0 -215 104q-57 76 -57 240zM266 295q0 -141 88 -141t88 141v428q0 141 -88 141t-88 -141v-428zM627 629h182v94q0 141 -92 141q-90 0 -90 -141v-94z" />
<glyph unicode="&#x178;" horiz-adv-x="761" d="M27 1366h215l145 -537l139 537h207l-246 -813v-553h-204v369v27.5t4 64.5q2 25 1 47t-5 45q-12 70 -37 137q-23 61 -35 95t-14 38zM147 1475v182h179v-182h-179zM434 1475v182h178v-182h-178z" />
<glyph unicode="&#x2c6;" d="M289 1188l121 164h204l121 -164h-166l-57 63l-57 -63h-166z" />
<glyph unicode="&#x2dc;" d="M313 1188v141q55 31 115 31q33 0 92 -19q59 -20 94 -20q33 0 97 35v-142q-59 -35 -99 -34q-35 0 -92 18q-55 20 -92 21q-59 0 -115 -31z" />
<glyph unicode="&#x2000;" horiz-adv-x="866" />
<glyph unicode="&#x2001;" horiz-adv-x="1733" />
<glyph unicode="&#x2002;" horiz-adv-x="866" />
<glyph unicode="&#x2003;" horiz-adv-x="1733" />
<glyph unicode="&#x2004;" horiz-adv-x="577" />
<glyph unicode="&#x2005;" horiz-adv-x="433" />
<glyph unicode="&#x2006;" horiz-adv-x="288" />
<glyph unicode="&#x2007;" horiz-adv-x="288" />
<glyph unicode="&#x2008;" horiz-adv-x="216" />
<glyph unicode="&#x2009;" horiz-adv-x="346" />
<glyph unicode="&#x200a;" horiz-adv-x="96" />
<glyph unicode="&#x2010;" horiz-adv-x="286" d="M0 426v184h287v-184h-287z" />
<glyph unicode="&#x2011;" horiz-adv-x="286" d="M0 426v184h287v-184h-287z" />
<glyph unicode="&#x2012;" horiz-adv-x="286" d="M0 426v184h287v-184h-287z" />
<glyph unicode="&#x2013;" d="M68 604v164h888v-164h-888z" />
<glyph unicode="&#x2014;" horiz-adv-x="878" d="M0 426v184h879v-184h-879z" />
<glyph unicode="&#x2018;" horiz-adv-x="389" d="M96 918v210l107 238h90l-72 -238h72v-210h-197z" />
<glyph unicode="&#x2019;" horiz-adv-x="389" d="M96 918l72 235h-72v213h197v-213l-107 -235h-90z" />
<glyph unicode="&#x201a;" horiz-adv-x="389" d="M96 0v211h197v-211l-107 -238h-90l72 238h-72z" />
<glyph unicode="&#x201c;" horiz-adv-x="669" d="M96 918v210l107 238h90l-72 -238h72v-210h-197zM375 918v210l108 238h90l-71 -238h71v-210h-198z" />
<glyph unicode="&#x201d;" horiz-adv-x="669" d="M96 918l72 235h-72v213h197v-213l-107 -235h-90zM375 918l74 235h-74v213h198v-213l-106 -235h-92z" />
<glyph unicode="&#x201e;" horiz-adv-x="669" d="M96 0v211h197v-211l-107 -238h-90l72 238h-72zM375 0v211h198v-211l-106 -238h-92l74 238h-74z" />
<glyph unicode="&#x2022;" horiz-adv-x="1366" d="M401 696q0 119 82 201q82 86 201 86q115 0 199 -84q82 -84 82 -203t-82 -200q-84 -86 -199 -86q-119 0 -199 84q-84 84 -84 202z" />
<glyph unicode="&#x2026;" horiz-adv-x="1105" d="M86 0v211h197v-211h-197zM455 0v211h196v-211h-196zM823 0v211h197v-211h-197z" />
<glyph unicode="&#x202f;" horiz-adv-x="346" />
<glyph unicode="&#x2039;" horiz-adv-x="348" d="M82 373v293l184 168v-246l-63 -70l63 -69v-244z" />
<glyph unicode="&#x203a;" horiz-adv-x="348" d="M82 205v244l63 69l-63 70v246l184 -168v-293z" />
<glyph unicode="&#x205f;" horiz-adv-x="433" />
<glyph unicode="&#x20ac;" horiz-adv-x="778" d="M37 496v163h106v129h-106v164h106q2 59 4.5 102.5t6.5 69.5q14 84 71 154q90 109 230 108q172 0 262 -151q43 -74 47 -221h-207q-2 45 -4 74.5t-8 46.5q-23 59 -92 59q-82 0 -103 -88q-10 -41 -12 -154h190v-164h-190v-129h190v-163h-190v-29q0 -129 6 -180 q14 -117 109 -117q84 0 98 94q2 2 6 156h207v-12q0 -170 -47 -269q-80 -160 -262 -159q-137 0 -230 108q-63 76 -78 195q-2 20 -3 72.5t-1 140.5h-106z" />
<glyph unicode="&#x2122;" horiz-adv-x="1132" d="M55 1245v121h387v-121h-129v-657h-133v657h-125zM502 588v778h172l106 -438l99 438h172v-778h-125v475l-111 -475h-72l-116 479v-479h-125z" />
<glyph unicode="&#xe000;" horiz-adv-x="1013" d="M0 0v1014h1014v-1014h-1014z" />
<glyph unicode="&#xfb01;" horiz-adv-x="741" d="M14 850v168h117v117q0 125 45 176q61 70 191 69q57 0 153 -18v-158q-35 4 -59.5 6t-40.5 2q-68 0 -90 -34q-14 -23 -15 -97v-63h347v-1018h-185v850h-162v-850h-184v850h-117z" />
<glyph unicode="&#xfb02;" horiz-adv-x="741" d="M14 850v168h117v117q0 125 45 176q57 68 174 67q10 0 25.5 -1t32.5 -3q23 -4 36 -5t19 -3h199v-1366h-185v1208q-31 2 -46 3t-17 1q-63 0 -84 -36q-14 -23 -15 -95v-63h105v-168h-105v-850h-184v850h-117z" />
</font>
</defs>
</svg>
